<?xml version="1.0" encoding="UTF-8" standalone="no"?>
<!DOCTYPE svg PUBLIC "-//W3C//DTD SVG 1.1//EN" "http://www.w3.org/Graphics/SVG/1.1/DTD/svg11.dtd">
<svg width="100%" height="100%" viewBox="0 0 100 100" version="1.1" xmlns="http://www.w3.org/2000/svg" xmlns:xlink="http://www.w3.org/1999/xlink" xml:space="preserve" xmlns:serif="http://www.serif.com/" style="fill-rule:evenodd;clip-rule:evenodd;stroke-linejoin:round;stroke-miterlimit:2;">
    <g transform="matrix(0.139392,0,0,0.160085,-11.9423,-7.4273)">
        <path d="M173.39,109.24C174.91,109.04 176.45,109.02 177.99,108.99C355.32,109.02 532.65,108.98 709.98,109.01C720.91,108.28 731.29,117.85 731.15,128.87C731.37,143.84 731.2,158.81 731.28,173.78C731.35,180.28 731.55,187.57 727.17,192.88C723.35,198.39 716.58,201.21 710.02,201.26C533.36,201.25 356.7,201.27 180.05,201.25C172.8,201.63 165.15,198.9 160.75,192.92C157.09,188.42 156.69,182.35 156.73,176.79C156.86,160.8 156.55,144.8 156.83,128.82C156.92,119.46 164.28,110.99 173.39,109.24M176.24,314.12C350.49,313.83 524.74,314.09 699,313.99C706.12,314.2 713.73,312.98 720.32,316.45C727.67,320.11 731.67,328.67 731.29,336.7C731.24,353.02 731.31,369.34 731.2,385.67C731.32,392.27 728.21,398.77 722.78,402.58C718.75,405.26 713.88,406.55 709.06,406.49C534.72,406.52 360.39,406.48 186.05,406.51C179.9,406.47 173.34,407.13 167.72,404.07C160.87,400.69 156.76,393.25 156.78,385.7C156.63,369.73 156.82,353.75 156.73,337.77C156.71,332.93 157.16,327.81 159.94,323.69C163.29,317.98 169.73,314.56 176.24,314.12M175.45,519.39C224.96,519.03 274.49,519.36 324.01,519.23C452.02,519.27 580.04,519.22 708.05,519.25C712.41,519.15 716.87,519.87 720.73,521.99C727.25,525.36 731.31,532.53 731.19,539.84C731.33,555.82 731.21,571.8 731.29,587.79C732.02,596.45 727.81,605.78 719.73,609.56C713.93,612.47 707.26,611.72 701,611.8C527.68,611.73 354.36,611.81 181.04,611.76C177.99,611.74 174.87,611.74 171.91,610.88C164.94,609.04 159.07,603.21 157.45,596.16C156.86,593.4 156.74,590.56 156.73,587.75C156.78,572.42 156.71,557.09 156.72,541.76C156.82,537.06 157.49,532.07 160.37,528.19C163.75,523.18 169.47,519.99 175.45,519.39" style="fill:white;fill-rule:nonzero;"/>
    </g>
</svg>
