<?xml version="1.0" encoding="UTF-8" standalone="no"?>
<!DOCTYPE svg PUBLIC "-//W3C//DTD SVG 1.1//EN" "http://www.w3.org/Graphics/SVG/1.1/DTD/svg11.dtd">
<svg width="100%" height="100%" viewBox="0 0 100 100" version="1.1" xmlns="http://www.w3.org/2000/svg" xmlns:xlink="http://www.w3.org/1999/xlink" xml:space="preserve" xmlns:serif="http://www.serif.com/" style="fill-rule:evenodd;clip-rule:evenodd;stroke-linejoin:round;stroke-miterlimit:2;">
    <g transform="matrix(0.177915,0,0,0.176808,-33.2725,-19.7877)">
        <path d="M301.49,171.44C311.47,169.35 322.19,171.53 330.71,177.08C337.46,181.16 342.46,187.36 348.1,192.74C387.41,232.09 426.71,271.46 466.02,310.82C507.64,269.12 549.29,227.46 590.89,185.74C594.7,181.77 599.02,178.23 603.88,175.6C613.87,170 626.33,169.19 637.02,173.28C643.89,175.99 649.95,180.49 655.04,185.81C663.13,194.01 671.33,202.11 679.32,210.41C686.64,218.01 691.8,228.12 691.43,238.87C692.04,250.64 686.24,261.81 678.07,269.94C636.66,311.2 595.37,352.57 553.95,393.81C553.22,394.75 551.03,396.03 552.55,397.29C591.51,436.34 630.62,475.26 669.63,514.26C675.7,520.54 682.66,526.24 686.73,534.14C691.38,542.15 692.38,551.83 690.86,560.85C689,570.61 683.11,579.1 675.99,585.82C668.18,593.67 660.34,601.49 652.5,609.31C644.11,617.26 632.8,622.63 621.06,621.94C609.15,621.56 598.32,615.04 590.42,606.44C548.94,564.9 507.47,523.35 465.97,481.82C424.02,523.88 382.01,565.87 340.07,607.94C331.76,616.48 320.22,622.46 308.08,621.91C296.8,621.88 286.33,616.12 278.46,608.34C270.34,600.12 262.17,591.95 253.96,583.83C246.09,575.9 240.26,565.25 240.57,553.82C239.89,541.8 245.97,530.46 254.37,522.26C296.53,480.31 338.45,438.12 380.7,396.27C368.7,384.91 357.26,372.96 345.49,361.38C315.64,331.56 285.78,301.76 255.93,271.95C248.49,265.04 242.44,256.08 240.92,245.88C240.06,238.84 240.41,231.49 243.16,224.87C246.12,217.21 251.85,211.11 257.59,205.41C264.6,198.09 271.85,191 279,183.81C285.27,177.87 292.92,173.11 301.49,171.44" style="fill:white;fill-rule:nonzero;"/>
    </g>
</svg>
