<?xml version="1.0" encoding="UTF-8" standalone="no"?>
<!DOCTYPE svg PUBLIC "-//W3C//DTD SVG 1.1//EN" "http://www.w3.org/Graphics/SVG/1.1/DTD/svg11.dtd">
<svg width="100%" height="100%" viewBox="0 0 100 100" version="1.1" xmlns="http://www.w3.org/2000/svg" xmlns:xlink="http://www.w3.org/1999/xlink" xml:space="preserve" xmlns:serif="http://www.serif.com/" style="fill-rule:evenodd;clip-rule:evenodd;stroke-linejoin:round;stroke-miterlimit:2;">
    <g transform="matrix(0.0976089,0,0,0.121679,3.68664,4.71771)">
        <path d="M453.63,48.45C460.99,46.65 468.32,44 476.02,44.43C487.82,44.36 499.24,50.36 506.54,59.51C513.08,67.43 516.3,77.81 516.03,88.03C515.96,292.23 516.11,496.44 515.95,700.65C372.31,700.58 228.66,700.67 85.01,700.61C74.85,700.97 65.1,692.27 64.87,681.97C64.75,667.66 64.81,653.34 64.81,639.03C64.71,632.5 67.91,625.9 73.53,622.43C78.18,618.83 84.31,618.64 89.93,618.74C122.56,618.78 155.19,618.65 187.82,618.82C187.62,464.21 187.82,309.59 187.72,154.97C187.73,149.59 187.76,144.1 189.36,138.9C192.7,126.74 201.58,116.22 213.19,111.18C219.53,108.67 226.26,107.38 232.83,105.61C306.42,86.5 380.02,67.46 453.63,48.45M396.39,332.55C384.95,336.41 377.41,347.33 374.28,358.57C372,367.67 371.96,377.39 374.26,386.49C376.94,395.86 382.44,404.91 390.98,409.98C397.98,414.27 407.28,414.57 414.46,410.54C422.51,406.38 427.98,398.44 430.88,390.04C433.85,381.01 434.81,371.21 432.73,361.88C430.71,350.88 424.74,339.89 414.6,334.49C409.13,331.35 402.4,330.89 396.39,332.55M557.04,126.22C604.37,126.29 651.71,126.22 699.04,126.25C717.9,125.79 736.78,134.67 748.33,149.61C757.68,161.2 762.5,176.13 762.26,190.99C762.21,333.59 762.35,476.2 762.19,618.81C795.12,618.61 828.04,618.84 860.97,618.72C866.09,618.62 871.56,619.08 875.91,622.05C881.71,625.55 885.36,632.24 885.17,639.01C885.16,653.32 885.28,667.63 885.15,681.94C884.93,692.21 875.26,701 865.08,700.62C803.45,700.68 741.82,700.51 680.19,700.72C680.35,536.57 680.15,372.42 680.29,208.27C639.15,208.18 598.02,208.39 556.89,208.16C557.05,180.85 556.94,153.53 557.04,126.22" style="fill:white;fill-rule:nonzero;"/>
    </g>
</svg>
