<?xml version="1.0" encoding="UTF-8" standalone="no"?>
<!DOCTYPE svg PUBLIC "-//W3C//DTD SVG 1.1//EN" "http://www.w3.org/Graphics/SVG/1.1/DTD/svg11.dtd">
<svg width="100%" height="100%" viewBox="0 0 100 100" version="1.1" xmlns="http://www.w3.org/2000/svg" xmlns:xlink="http://www.w3.org/1999/xlink" xml:space="preserve" xmlns:serif="http://www.serif.com/" style="fill-rule:evenodd;clip-rule:evenodd;stroke-linejoin:round;stroke-miterlimit:2;">
    <g transform="matrix(0.122222,0,0,0.121714,-7.44537,0.357656)">
        <path d="M198.25,82.54C372.51,82.29 546.78,82.52 721.04,82.43C731.07,82.55 741.34,81.69 751.09,84.66C772.4,90.18 789.74,108.27 794.6,129.72C796.88,138.72 796.11,148.07 796.25,157.26C796.28,330.56 796.25,503.87 796.26,677.18C796.26,693.92 789.49,710.8 777.02,722.14C765.45,733.51 749.06,739.29 732.95,738.94C559.65,738.96 386.34,738.93 213.04,738.95C203.98,738.88 194.73,739.5 185.9,737.01C164.71,731.81 147.08,714.35 141.8,693.17C139.53,685.38 139.71,677.21 139.75,669.19C139.73,494.17 139.74,319.15 139.74,144.12C139.77,128.56 145.57,112.86 156.54,101.68C167.14,90.03 182.59,83.29 198.25,82.54M201.29,143.92C201.2,222.6 201.34,301.29 201.21,379.98C379.08,379.92 556.96,379.84 734.83,380.02C734.63,301.31 734.77,222.61 734.76,143.9C556.93,143.98 379.11,143.95 201.29,143.92M201.17,441.36C201.37,520.07 201.23,598.77 201.24,677.47C379.06,677.4 556.89,677.43 734.71,677.46C734.81,598.78 734.65,520.09 734.79,441.4C556.92,441.46 379.04,441.54 201.17,441.36M342.6,222.77C349.98,217.65 359.12,215.81 367.96,215.66C429.63,215.73 491.3,215.64 552.97,215.7C562.61,215.91 572.48,214.85 581.89,217.57C593.94,220.63 603.89,230 608.59,241.39C613.66,254.73 611.11,269.26 611.76,283.17C612.36,291.02 609.93,299.78 603.03,304.28C594.52,310.27 583.65,307.57 573.98,308.21C565.67,308.8 556.59,305.19 552.69,297.49C549.22,291.39 550.08,284.16 550.01,277.44C495.35,277.48 440.68,277.42 386.02,277.48C385.99,283.94 386.75,290.84 383.7,296.81C380.46,303.88 372.68,308.11 365.05,308.18C358.69,308.3 352.33,308.27 345.97,308.2C338.07,308.2 329.82,304.04 326.51,296.61C323.19,289.94 324.48,282.3 324.24,275.14C324.48,265.66 323.4,256 325.73,246.7C328.08,236.97 334.42,228.42 342.6,222.77M351.8,515.76C359.25,513.23 367.2,513.02 375,513.19C437.32,513.09 499.65,513.25 561.97,513.13C573.35,512.76 585.6,514.12 594.88,521.33C601.53,526.83 607.48,533.77 609.72,542.29C612.65,552.01 611.56,562.24 611.76,572.24C611.5,579.62 612.79,587.45 609.43,594.36C607.4,599.29 602.7,602.51 597.87,604.35C592.46,606.3 586.62,605.59 581,605.71C575.01,605.56 568.75,606.43 563.04,604.15C558.17,602.11 553.7,598.44 551.84,593.37C549.32,587.55 550.12,581.1 550.01,574.95C495.35,574.93 440.7,574.95 386.05,574.93C386.13,582.28 386.63,590.25 382.42,596.69C377.76,603.6 369.04,606.34 361.01,605.7C353.14,605.19 344.86,606.95 337.31,604.07C332.58,602.14 328.13,598.73 326.28,593.81C323.31,587.34 324.43,580.09 324.25,573.22C324.39,560.04 322.85,545.83 329.83,533.96C334.92,525.78 342.44,518.66 351.8,515.76" style="fill:white;fill-rule:nonzero;"/>
    </g>
</svg>
