<?xml version="1.0" encoding="UTF-8" standalone="no"?>
<!DOCTYPE svg PUBLIC "-//W3C//DTD SVG 1.1//EN" "http://www.w3.org/Graphics/SVG/1.1/DTD/svg11.dtd">
<svg width="100%" height="100%" viewBox="0 0 246 55" version="1.1" xmlns="http://www.w3.org/2000/svg" xmlns:xlink="http://www.w3.org/1999/xlink" xml:space="preserve" xmlns:serif="http://www.serif.com/" style="fill-rule:evenodd;clip-rule:evenodd;stroke-linejoin:round;stroke-miterlimit:2;">
    <g transform="matrix(1,0,0,1,-7.76236,-65.725)">
        <g transform="matrix(1,0,0,1,0,-2.55)">
            <path d="M93.59,69.12C94.69,68.98 95.79,68.83 96.9,68.69C97.26,81.01 96.72,93.35 97.16,105.66C97.14,108.94 100.37,110.23 102.87,111.35C102.96,112.08 103.15,113.55 103.24,114.28C100.71,113.85 97.87,113.57 96.04,111.54C93.86,109.52 93.73,106.36 93.64,103.6C93.6,92.11 93.72,80.61 93.59,69.12M104.9,68.86L108.07,68.86C108.25,79.62 108.11,90.38 108.14,101.14C111.53,98.37 114.57,95.2 117.9,92.37C119.43,90.77 121.82,91.36 123.78,91.15C121.28,93.97 118.39,96.4 115.57,98.89C118.07,99.75 121.06,100.52 122.36,103.1C124.18,106.99 123.24,111.38 123.97,115.48C124.56,118.07 127.25,119.07 129.5,119.75C129.46,120.52 129.37,122.08 129.32,122.86C126.51,122.22 123.18,121.65 121.67,118.85C118.64,114.4 121.9,108.18 118.51,103.97C115.37,100.88 110.48,102.33 108.13,105.6C108.16,108.26 108.15,110.93 108.14,113.59L104.81,113.59C104.86,98.68 104.68,83.77 104.9,68.86M55.92,83.89C56.93,84.52 57.93,85.16 58.91,85.83C61.58,91.44 61.93,97.72 60.24,103.66C59.92,103.04 59.28,101.79 58.96,101.17C57.62,101.1 56.29,101.02 54.96,100.95C54.98,100.23 55.01,98.77 55.03,98.05C51.55,98.71 50.05,102.08 48.27,104.73C48.2,103.93 48.04,102.34 47.97,101.54C47.46,101.53 46.44,101.5 45.93,101.49C44.26,98.25 43.54,94.61 43.81,90.97C46.08,92.53 47.95,94.55 49.58,96.76C48.87,93.67 48.14,90.57 47.83,87.41C49.04,86.73 50.25,86.05 51.46,85.36C52.79,88.35 53.86,91.45 54.89,94.55C54.87,90.97 55.11,87.39 55.92,83.89M72.5,95.09C75.19,89.95 82.77,89.3 87.33,92.22C90.66,94.41 90.78,98.81 90.94,102.38C86.69,102.41 82.44,102.39 78.19,102.37C78.16,101.57 78.09,99.97 78.05,99.17C81.27,99.17 84.48,99.15 87.7,98.97C86.7,96.86 85.57,94.31 82.94,93.97C79.2,92.68 74.94,95.52 74.92,99.51C74.83,103.02 74.25,107.66 77.5,110C80.19,111.36 84.19,111.34 86.19,108.76C86.87,107.55 87.29,106.21 87.79,104.92C88.64,105.01 90.35,105.17 91.2,105.26C90.47,108.25 89.52,111.69 86.42,113.05C81.88,114.99 75.06,114.59 72.55,109.72C70.96,105.05 71.02,99.78 72.5,95.09M126.21,97.73C127.06,88.57 142.56,87.81 144.84,96.42C145.89,102.07 145.15,107.87 145.34,113.58C144.51,113.58 142.83,113.59 141.99,113.59C141.73,108.34 142.38,103.04 141.59,97.84C140.27,92.19 130.74,92.35 129.66,98.05C129.03,101.58 128.79,105.62 130.68,108.81C132.73,111.76 136.6,111.34 139.61,110.48C138.49,114.8 132.19,114.88 129.22,112.46C125.02,108.86 125.82,102.65 126.21,97.73M148.5,91.17C151.65,91.65 154.79,91.15 157.86,90.42C157.86,91.18 157.88,92.7 157.88,93.45C155.65,94.22 152.74,94.96 152.22,97.66C151.24,102.85 151.95,108.18 151.78,113.44C150.63,113.48 149.47,113.53 148.32,113.58C148.43,106.11 148.11,98.63 148.5,91.17" style="fill:rgb(118,196,141);fill-rule:nonzero;"/>
        </g>
        <g transform="matrix(1,0,0,1,0,-2.68)">
            <path d="M199.28,69.01C200.44,69.01 201.6,69.01 202.77,69.02C202.79,80.23 202.76,91.44 202.77,102.66C202.87,105.1 202.75,108.03 204.88,109.73C207.19,111.49 210.72,111.39 213.12,109.83C215.28,108.16 215.23,105.13 215.36,102.65C215.34,99.89 215.28,96.56 212.75,94.81C210.49,92.82 207.28,94.08 204.62,94.06C207.38,88.91 215.49,89.89 217.63,95.04C219.31,99.63 219.2,104.86 217.8,109.52C214.24,117.13 199.62,115.52 199.4,106.37C199.09,93.92 199.35,81.46 199.28,69.01M243.61,69.23C244.74,69.1 245.87,68.97 247,68.85C247.12,80.84 246.9,92.83 247.1,104.82C247,108.21 249.66,110.92 253.01,111.13C253.03,111.94 253.06,113.58 253.08,114.39C250.57,113.98 247.75,113.73 246,111.63C243.82,109.6 243.75,106.43 243.67,103.66C243.63,92.18 243.77,80.7 243.61,69.23M48.06,82C49.28,83.08 50.45,84.21 51.46,85.49C50.25,86.18 49.04,86.86 47.83,87.54C47.82,85.69 47.93,83.84 48.06,82M177.22,97.7C178.28,88.59 193.75,88.02 195.97,96.66C196.79,102.3 196.2,108.04 196.36,113.72C195.51,113.71 193.82,113.7 192.98,113.69C192.8,108.46 193.36,103.18 192.65,97.98C191.37,92.64 182.26,92.3 180.89,97.72C180.02,101.53 179.66,106.2 182.24,109.44C184.37,112 187.96,111.29 190.75,110.52C189.59,114.93 183.27,115.05 180.23,112.56C176.01,108.93 176.83,102.66 177.22,97.7M222.4,94.98C226.17,88.14 239.34,89.22 240.5,97.58C241.14,102.92 240.63,108.33 240.79,113.7C239.63,113.69 238.47,113.68 237.31,113.67C237.06,108.33 237.71,102.94 236.85,97.65C235.23,92.56 226.63,92.5 225.19,97.74C224.58,101.31 224.23,105.38 225.93,108.7C227.96,112 232.21,111.39 235.37,110.52C233.04,116.18 224.03,114.87 222.22,109.42C220.78,104.78 220.78,99.57 222.4,94.98M159.35,94.6C159.41,93.52 159.48,92.45 159.54,91.37C164.72,91.42 169.89,91.39 175.06,91.4C171.65,97.75 168.41,104.18 165.07,110.56C168.38,110.51 171.69,110.5 175,110.51L175,113.75C169.87,113.75 164.73,113.77 159.59,113.73C162.78,107.35 166.19,101.08 169.38,94.7C166.03,94.7 162.69,94.72 159.35,94.6M48.27,104.86C50.05,102.21 51.55,98.84 55.03,98.18C55.01,98.9 54.98,100.36 54.96,101.08C54.39,103.64 53.5,106.11 52.57,108.55C54.05,107.81 55.53,107.05 57.03,106.33C56.72,108.15 56.42,109.97 56.02,111.77C52.16,117.56 45.65,121.03 38.95,122.42C41.65,119.79 44.77,117.37 46.4,113.88C47.5,111.59 47.21,108.97 47.34,106.51C46.43,106.43 44.61,106.29 43.7,106.22C44.39,104.66 45.11,103.11 45.93,101.62C46.44,101.63 47.46,101.66 47.97,101.67C48.04,102.47 48.2,104.06 48.27,104.86M15.91,101.18C17.38,102.19 18.78,103.3 19.98,104.62L20.26,105.33C19.52,107.04 18.81,108.76 17.92,110.41C16.62,107.5 15.81,104.39 15.91,101.18M13.71,111.31C12.85,108.84 16.33,109.4 17.2,110.78C16.11,111.5 14.94,111.68 13.71,111.31M23.36,120.41C25.22,119.83 27.07,118.9 29.06,118.96C32.27,120.13 35.25,121.86 38.56,122.78C33.4,122.83 28.2,122.31 23.36,120.41" style="fill:rgb(106,132,94);fill-rule:nonzero;"/>
        </g>
        <g transform="matrix(1,0,0,1,0,-40.16)">
            <path d="M14.15,116.93C20.49,107.33 33.98,104.47 44.35,108.52C39.95,108.37 35.17,108.8 31.69,111.8C27.48,114.83 27.4,120.59 24.13,124.36C23.55,124.02 22.39,123.34 21.81,123C22.13,121.72 22.45,120.45 22.78,119.17C20.99,121.6 18.97,124.09 15.82,124.69C16.75,121.44 18.2,118.35 20.09,115.55C18.81,116.15 17.51,116.75 16.18,117.24C15.67,117.16 14.66,117 14.15,116.93" style="fill:rgb(179,200,197);fill-rule:nonzero;"/>
        </g>
        <g transform="matrix(1,0,0,1,0,-5.63)">
            <path d="M44.35,73.99C50.97,76.51 57.19,81.8 58.91,88.91C57.93,88.24 56.93,87.6 55.92,86.97C55.11,90.47 54.87,94.05 54.89,97.63C53.86,94.53 52.79,91.43 51.46,88.44C50.45,87.16 49.28,86.03 48.06,84.95C47.93,86.79 47.82,88.64 47.83,90.49C48.14,93.65 48.87,96.75 49.58,99.84C47.95,97.63 46.08,95.61 43.81,94.05C43.54,97.69 44.26,101.33 45.93,104.57C45.11,106.06 44.39,107.61 43.7,109.17C41.73,115.2 36.13,119.39 30.11,120.79C28.51,120.44 27.83,118.63 27.16,117.32C25.72,113.24 25.37,108.85 23.59,104.87C22.68,107.09 22.11,109.43 21.68,111.79C21.21,110.61 20.74,109.44 20.26,108.28L19.98,107.57C19.87,105.6 19.91,103.62 19.91,101.65C19.98,98.97 19.62,96.3 18.9,93.71C18.06,95.47 17.31,97.27 16.58,99.08C16.12,97.5 15.7,95.91 15.22,94.34C14.8,93.03 14.35,91.73 13.84,90.46C13.42,91.75 13.06,93.05 12.75,94.38C12.47,95.85 12.26,97.34 12.04,98.83C11.17,97.65 10.3,96.48 9.38,95.34C9.1,95.68 8.54,96.37 8.26,96.71C8.56,91.59 10.24,85.75 14.15,82.4C14.66,82.47 15.67,82.63 16.18,82.71C17.51,82.22 18.81,81.62 20.09,81.02C18.2,83.82 16.75,86.91 15.82,90.16C18.97,89.56 20.99,87.07 22.78,84.64C22.45,85.92 22.13,87.19 21.81,88.47C22.39,88.81 23.55,89.49 24.13,89.83C27.4,86.06 27.48,80.3 31.69,77.27C35.17,74.27 39.95,73.84 44.35,73.99" style="fill:rgb(236,243,210);fill-rule:nonzero;"/>
        </g>
        <g transform="matrix(1,0,0,1,0,15.93)">
            <path d="M12.75,72.82C13.06,71.49 13.42,70.19 13.84,68.9C14.35,70.17 14.8,71.47 15.22,72.78C15.12,74.78 14.59,76.72 13.79,78.54C13.37,76.65 12.99,74.74 12.75,72.82M16.58,77.52C17.31,75.71 18.06,73.91 18.9,72.15C19.62,74.74 19.98,77.41 19.91,80.09C18.63,79.47 17.28,78.86 16.58,77.52M21.68,90.23C22.11,87.87 22.68,85.53 23.59,83.31C25.37,87.29 25.72,91.68 27.16,95.76C27.83,97.07 28.51,98.88 30.11,99.23C36.13,97.83 41.73,93.64 43.7,87.61C44.61,87.68 46.43,87.82 47.34,87.9C47.21,90.36 47.5,92.98 46.4,95.27C44.77,98.76 41.65,101.18 38.95,103.81L38.56,104.17C35.25,103.25 32.27,101.52 29.06,100.35C27.07,100.29 25.22,101.22 23.36,101.8C19.91,99.77 16.16,97.67 14.09,94.11L13.71,92.7C14.94,93.07 16.11,92.89 17.2,92.17L17.92,91.8C18.81,90.15 19.52,88.43 20.26,86.72C20.74,87.88 21.21,89.05 21.68,90.23" style="fill:rgb(187,168,129);fill-rule:nonzero;"/>
        </g>
        <g transform="matrix(1,0,0,1,0,9.75)">
            <path d="M12.04,83.45C12.26,81.96 12.47,80.47 12.75,79C12.99,80.92 13.37,82.83 13.79,84.72C14.59,82.9 15.12,80.96 15.22,78.96C15.7,80.53 16.12,82.12 16.58,83.7C17.28,85.04 18.63,85.65 19.91,86.27C19.91,88.24 19.87,90.22 19.98,92.19C18.78,90.87 17.38,89.76 15.91,88.75C15.81,91.96 16.62,95.07 17.92,97.98L17.2,98.35C16.33,96.97 12.85,96.41 13.71,98.88L14.09,100.29C9.56,95.2 7.22,88.1 8.26,81.33C8.54,80.99 9.1,80.3 9.38,79.96C10.3,81.1 11.17,82.27 12.04,83.45" style="fill:rgb(232,216,154);fill-rule:nonzero;"/>
        </g>
        <g transform="matrix(1,0,0,1,0,18.49)">
            <path d="M54.96,79.91C56.29,79.98 57.62,80.06 58.96,80.13C59.28,80.75 59.92,82 60.24,82.62C59.31,85.51 58.02,88.29 56.02,90.6C56.42,88.8 56.72,86.98 57.03,85.16C55.53,85.88 54.05,86.64 52.57,87.38C53.5,84.94 54.39,82.47 54.96,79.91" style="fill:rgb(165,209,156);fill-rule:nonzero;"/>
        </g>
    </g>
</svg>
