<?xml version="1.0" encoding="UTF-8" standalone="no"?>
<!DOCTYPE svg PUBLIC "-//W3C//DTD SVG 1.1//EN" "http://www.w3.org/Graphics/SVG/1.1/DTD/svg11.dtd">
<svg width="100%" height="100%" viewBox="0 0 100 100" version="1.1" xmlns="http://www.w3.org/2000/svg" xmlns:xlink="http://www.w3.org/1999/xlink" xml:space="preserve" xmlns:serif="http://www.serif.com/" style="fill-rule:evenodd;clip-rule:evenodd;stroke-linejoin:round;stroke-miterlimit:2;">
    <g transform="matrix(0.122371,0,0,0.122118,-5.94291,3.43693)">
        <path d="M699.93,58.77C703.27,55.3 708.98,54.14 713.21,56.61C716.61,59.27 718.86,63.07 721.34,66.53C729.78,79.81 736.29,94.45 739.53,109.88C744.03,129.92 744.09,150.87 740.39,171.04C736.39,190.83 729.46,209.99 720.03,227.83C745.92,251.96 765.86,282.75 775.86,316.79C783.16,340.36 785.5,365.33 783.41,389.87C782.28,401.51 779.83,412.96 777.29,424.36C753.85,400.03 730.42,375.69 707.02,351.33C668.89,351.42 630.77,351.24 592.65,351.39C592.96,317.94 592.57,284.5 592.78,251.05C560.78,236.52 528.92,221.66 496.93,207.11C527.39,188.33 563.1,177.09 599.08,178.29C613.88,178.7 628.66,180.79 642.91,184.86C651.67,186.79 659.85,190.54 668.25,193.61C676.72,176.1 682.7,156.83 681.53,137.19C680.5,124.37 677.04,111.51 669.93,100.68C666.42,95.59 669.06,88.92 673.47,85.34C682.33,76.52 691.08,67.6 699.93,58.77M460.02,281.86C466.93,269.34 475.06,257.53 483.98,246.36C506.59,256.62 529.11,267.1 551.76,277.27C551.79,315.74 551.67,354.2 551.8,392.67C597.77,392.52 643.74,392.56 689.7,392.63C705.32,409.17 721.32,425.34 736.98,441.83C728.06,457.48 718.14,472.6 706.59,486.44C694.31,502.32 680.09,516.54 665.9,530.68C639.65,555.48 611.24,577.96 581.22,598.02C564.92,608.22 548.58,618.39 531.62,627.46C514.34,636.46 497.13,645.68 479.13,653.19C398.19,688.78 310.37,708.25 222.05,711.27C212.36,711.24 202.66,711.7 192.98,711.27C177.03,709.79 161.43,703.11 150.02,691.76C130.52,673.98 123.13,644.66 130.76,619.55C133.9,607.66 140.7,596.91 149.47,588.38C162.82,574.8 182.09,567.97 200.95,568.03C220.29,567.66 239.61,564.75 258.01,558.7C275.1,552.87 291.35,544.47 305.71,533.5C319.62,523.64 331.34,511.12 342.54,498.37C366.33,470.35 383.98,437.87 400.27,405.1C420.7,364.27 437.64,321.71 460.02,281.86" style="fill:white;fill-rule:nonzero;"/>
    </g>
</svg>
