<?xml version="1.0" encoding="UTF-8" standalone="no"?>
<!DOCTYPE svg PUBLIC "-//W3C//DTD SVG 1.1//EN" "http://www.w3.org/Graphics/SVG/1.1/DTD/svg11.dtd">
<svg width="100%" height="100%" viewBox="0 0 927 768" version="1.1" xmlns="http://www.w3.org/2000/svg" xmlns:xlink="http://www.w3.org/1999/xlink" xml:space="preserve" xmlns:serif="http://www.serif.com/" style="fill-rule:evenodd;clip-rule:evenodd;stroke-linejoin:round;stroke-miterlimit:2;">
    <g transform="matrix(1,0,0,1,0,-2.95)">
        <path d="M169.32,76.34C176.53,64.59 190.09,56.99 203.92,57.37C376.62,57.3 549.32,57.36 722.02,57.34C733.12,57.12 744.41,61.74 751.81,70.11C755.13,73.62 757.59,77.79 760.13,81.86C782.64,117.69 805.15,153.52 827.58,189.41C835.46,202.36 844.64,214.73 849.92,229.06C865.02,266.85 858.48,312.32 833.37,344.33C821.45,359.78 805.28,372.09 786.84,378.65C773.83,383.56 759.86,385.25 746.02,385.36C730.25,384.69 714.28,382.5 699.73,376.08C681.54,368.99 665.36,357.29 652.18,342.97C645.16,350.06 638.08,357.22 629.65,362.66C618.8,370.29 606.65,376.02 593.99,379.89C582.08,383.74 569.48,384.85 557.04,385.37C545.15,384.73 533.11,383.81 521.72,380.12C499.18,373.33 478.63,360.35 462.79,342.94C447.39,360.27 427.14,373.09 404.97,379.78C384.97,385.99 363.47,386.66 342.94,382.8C316.37,377.15 291.55,363.11 273.48,342.76C256.33,362.88 232.07,376.02 206.63,382.37C194.21,384.55 181.53,386.12 168.92,384.85C150.39,383.77 132.07,377.74 116.82,367.1C87.52,347.48 69.83,312.88 68.27,277.95C67.08,257.81 71.22,237.35 80.34,219.34C84.89,210.46 90.52,202.19 95.7,193.68C120.31,154.61 144.76,115.44 169.32,76.34M134.69,420.31C161.31,428 189.87,428.41 216.74,421.69C216.72,464.33 216.85,506.97 216.67,549.61C380.87,549.8 545.07,549.62 709.27,549.7C709.21,507.02 709.27,464.34 709.25,421.67C729.39,426.61 750.46,427.79 771.01,424.84C778,423.82 785.01,422.63 791.67,420.19C791.29,500.44 791.61,580.71 791.51,660.96C791.63,670.1 791.77,679.54 788.35,688.18C783.37,700.89 771.42,710.35 758.1,712.94C752.77,713.72 747.37,713.56 742.01,713.57C558.35,713.59 374.69,713.56 191.03,713.59C183.29,713.48 175.51,713.96 167.83,712.87C159.1,711.18 151.24,706.25 145.16,699.87C138,692.08 134.96,681.37 134.75,670.97C134.69,587.42 134.81,503.86 134.69,420.31" style="fill:white;fill-rule:nonzero;"/>
    </g>
</svg>
