<?xml version="1.0" encoding="UTF-8" standalone="no"?>
<!DOCTYPE svg PUBLIC "-//W3C//DTD SVG 1.1//EN" "http://www.w3.org/Graphics/SVG/1.1/DTD/svg11.dtd">
<svg width="100%" height="100%" viewBox="0 0 100 100" version="1.1" xmlns="http://www.w3.org/2000/svg" xmlns:xlink="http://www.w3.org/1999/xlink" xml:space="preserve" xmlns:serif="http://www.serif.com/" style="fill-rule:evenodd;clip-rule:evenodd;stroke-linejoin:round;stroke-miterlimit:2;">
    <g transform="matrix(0.0979911,0,0,0.139612,5.87331,0.435422)">
        <path d="M439.45,69.63C461.11,68.12 482.99,71.92 503.19,79.75C532.61,91.74 557.82,113.79 573.45,141.47C589.31,168.59 595.63,201.04 591.27,232.14C585.25,278.59 554.75,320.97 512.7,341.57C478.09,358.53 436.54,361.17 400.3,347.8C385.5,342.83 371.97,334.68 359.59,325.28C334.95,305.3 316.79,277.27 309.45,246.35C302.02,217.01 304.82,185.35 316.6,157.52C328.41,129.44 349.13,104.91 375.52,89.52C394.78,77.84 417,71.14 439.45,69.63M154.43,151.64C171.55,150.08 189.26,153.99 203.93,163.05C216.72,170.47 226.85,181.91 234.17,194.64C239.17,205.07 243.26,216.27 243.63,227.95C243.9,235.9 243.75,243.96 241.73,251.71C238.54,263.29 233.94,274.74 226.13,284.02C207.94,308.06 175.42,319.73 146.01,313.83C125.59,310.09 107.02,297.92 95.11,280.96C74.91,254.35 74.7,214.93 93.65,187.59C99.37,179.47 106.28,172.1 114.31,166.22C126.14,158.03 140.09,152.94 154.43,151.64M729.46,151.61C748.48,149.91 768.05,155.19 783.62,166.26C793.47,173.38 801.55,182.82 807.87,193.16C817.24,209.23 820.11,228.59 817.23,246.85C814.75,262.4 807.41,277.05 796.75,288.61C772.49,316.55 728.05,323.52 696.19,304.83C682.03,297.15 670.75,284.85 663.19,270.74C658.59,260.72 654.8,250.06 654.38,238.95C654.07,230.25 654.26,221.38 656.83,212.99C659.39,204.45 662.51,195.92 667.54,188.5C675.16,177.29 685.14,167.41 697.31,161.23C707.16,155.73 718.25,152.64 729.46,151.61M101.91,358.77C109.49,357 117.28,356.35 125.05,356.43C151.03,356.49 177,356.34 202.98,356.48C224.28,356.65 245.43,365.14 260.51,380.25C248.33,387.06 237.05,395.32 226.37,404.27C208.27,420.6 192.66,439.98 182.04,462C172.95,480.37 166.91,500.28 164.39,520.63C136.58,520.74 108.77,520.72 80.97,520.66C67.17,520.67 53.11,514.15 45.58,502.34C40.34,494.62 38.45,485.15 38.48,475.94C38.58,462.95 38.35,449.95 38.61,436.97C39.02,421.51 43.66,406.14 52.33,393.29C63.54,375.91 81.78,363.37 101.91,358.77M685.87,357.14C692.52,356.26 699.24,356.44 705.93,356.44C728.62,356.44 751.31,356.43 774.01,356.42C781.74,356.46 789.51,357.05 797.03,358.95C817.08,363.69 834.92,376.62 846.01,393.94C854.87,406.79 859.2,422.42 859.44,437.95C859.53,450.97 859.46,463.99 859.49,477C859.49,486.33 857.32,495.93 851.65,503.5C845.6,512.36 835.63,518.2 825.11,519.9C818.13,521.09 811.01,520.59 803.97,520.69C780.55,520.66 757.13,520.77 733.71,520.65C731.13,499.05 724.13,478.11 714.14,458.83C699.06,428.65 674.73,403.59 646.36,385.6C643.45,383.75 640.4,382.09 637.62,380.05C650.51,367.24 667.87,359.25 685.87,357.14M332.44,398.6C340.93,397.64 349.49,397.45 358.03,397.4C362.38,397.07 366,399.79 369.85,401.34C402.54,415.64 439.13,420.89 474.52,416.37C484.86,415.08 494.94,412.39 505.02,409.8C516.05,406.81 526.36,401.76 536.95,397.6C551.74,397.03 566.72,398.01 581.15,401.42C618.93,410.35 653.09,434.48 673.14,467.84C685.32,486.69 692.17,508.66 694.48,530.9C695.86,547.88 695.06,564.92 695.23,581.94C695.48,597.1 689.49,612.1 679.44,623.35C667.88,635.89 651.17,643.82 634.01,643.68C510.68,643.69 387.34,643.73 264.01,643.67C245.62,643.79 227.82,634.83 216.17,620.76C207.38,609.49 202.49,595.29 202.72,580.98C202.87,564.3 202.31,547.59 203.47,530.93C204.88,516.93 208.49,503.23 213.42,490.08C225.6,460.03 247.75,433.99 275.94,417.82C293.26,407.8 312.58,401.15 332.44,398.6" style="fill:white;fill-rule:nonzero;"/>
    </g>
</svg>
