<?xml version="1.0" encoding="UTF-8" standalone="no"?>
<!DOCTYPE svg PUBLIC "-//W3C//DTD SVG 1.1//EN" "http://www.w3.org/Graphics/SVG/1.1/DTD/svg11.dtd">
<svg width="100%" height="100%" viewBox="0 0 308 665" version="1.1" xmlns="http://www.w3.org/2000/svg" xmlns:xlink="http://www.w3.org/1999/xlink" xml:space="preserve" xmlns:serif="http://www.serif.com/" style="fill-rule:evenodd;clip-rule:evenodd;stroke-linecap:round;stroke-linejoin:round;">
    <g transform="matrix(0.983349,0,0,0.983349,-483.326,-15.627)">
        <path d="M663.736,40.658C664.593,43.047 665.092,46.422 665.673,48.892C665.674,48.891 672.207,45.686 675.198,44.855C677.039,44.344 679.583,43.873 681.494,43.887C683.015,43.898 685.135,44.022 686.499,44.694C688.128,45.496 690.12,47.233 690.858,48.892C691.94,51.326 691.051,55.114 690.858,57.771C690.62,61.043 689.975,65.389 689.243,68.588C687.903,74.44 684.949,81.922 683.108,87.637C683.109,87.637 688.068,86.768 690.212,86.83C692.225,86.888 694.943,87.258 696.831,87.96C698.092,88.429 699.994,89.078 700.705,90.22C702.267,92.729 701.308,97.214 700.544,100.069C698.914,106.162 693.027,112.724 689.632,118.041C687.901,120.752 685.469,124.287 683.684,126.963C683.685,126.963 690.793,128.18 693.35,129.788C695.06,130.864 696.923,132.962 697.96,134.696C698.568,135.713 699.363,137.23 699.298,138.413C699.178,140.607 697.14,143.124 695.729,144.808C693.824,147.083 690.326,149.136 687.999,150.978C684.307,153.901 678.95,157.307 675.651,160.666C671.857,164.529 667.631,170.476 664.822,175.105C662.587,178.787 660.015,183.971 658.553,188.023C657.357,191.339 656.251,195.94 655.703,199.422C654.534,206.857 654.772,216.961 654.373,224.477C654.374,224.476 660.879,216.851 663.875,213.776C666.602,210.978 670.427,207.432 673.378,204.873C675.075,203.401 677.628,201.769 679.199,200.164C681.462,197.854 684.165,194.419 685.726,191.587C687.803,187.821 689.041,182.112 690.626,178.114C692.121,174.342 693.968,169.221 695.963,165.689C697.805,162.43 700.462,158.066 703.225,155.54C704.349,154.513 706.106,153.409 707.512,152.828C708.722,152.327 710.479,151.613 711.766,151.852C713.178,152.114 714.684,153.557 715.713,154.558C716.855,155.668 718.085,157.447 718.819,158.86C719.654,160.47 720.529,162.785 720.77,164.582C722.589,163.598 723.864,161.687 725.117,160.59C726.997,158.943 729.64,156.875 731.793,155.606C733.436,154.636 735.737,153.472 737.573,152.953C739.353,152.45 741.846,152.094 743.693,152.206C745.179,152.296 747.206,152.661 748.521,153.362C750.024,154.163 751.644,155.877 752.669,157.237C753.58,158.447 754.287,160.379 754.981,161.725C754.982,161.725 759.628,158.774 761.831,157.977C764.57,156.986 768.459,156.198 771.372,156.175C772.626,156.165 774.325,156.361 775.508,156.776C777.236,157.382 779.525,158.56 780.724,159.943C781.741,161.117 782.504,163.16 782.807,164.683C783.139,166.353 782.865,168.666 782.663,170.357C782.584,171.011 782.361,171.865 782.232,172.511C782.232,172.512 785.948,173.595 787.475,174.235C789.693,175.164 792.676,176.48 794.579,177.95C796.369,179.333 798.454,181.607 799.658,183.521C800.397,184.696 801.444,186.393 801.461,187.781C801.486,189.872 799.824,192.423 798.675,194.171C797.548,195.885 795.607,197.885 794.006,199.168C792.387,200.465 789.952,201.858 788.043,202.671C786.391,203.375 784.014,203.822 782.287,204.316C782.288,204.317 785.863,209.013 786.773,211.343C787.478,213.15 788.499,215.831 787.969,217.697C787.336,219.925 784.695,222.195 782.661,223.304C780.638,224.407 777.408,224.535 775.111,224.724C771.98,224.981 767.769,224.755 764.645,224.425C760.879,224.027 755.959,222.803 752.236,222.107C752.236,222.108 752.818,224.394 752.909,225.397C753.053,226.99 753.217,229.2 752.741,230.727C752.255,232.29 751.162,234.432 749.781,235.311C748.222,236.303 745.511,236.222 743.669,236.075C740.706,235.839 736.924,234.337 734.214,233.115C730.815,231.581 726.794,228.569 723.614,226.621C723.614,226.621 723.027,230.457 722.372,231.968C721.659,233.616 720.514,235.924 719.03,236.935C717.789,237.78 715.652,238.233 714.159,238.081C711.597,237.819 708.612,235.666 706.519,234.165C704.925,233.023 703.132,231.083 701.794,229.65C699.19,226.859 696.153,222.758 693.735,219.805C693.735,219.805 690.87,219.291 689.63,219.31C688.477,219.328 686.946,219.595 685.829,219.881C683.852,220.387 681.186,221.199 679.471,222.306C676.564,224.182 673.342,227.703 671.479,230.618C669.181,234.213 667.603,239.813 666.428,243.915C665.278,247.936 664.236,253.441 663.729,257.592C663.08,262.9 662.954,270.052 662.934,275.4C662.923,278.097 663.134,281.69 663.221,284.386C663.219,284.386 651.619,284.526 646.647,284.586C646.647,284.56 646.367,101.073 646.247,22.424C646.247,22.424 647.073,22.408 647.428,22.401C649.422,22.553 651.935,23.841 653.565,24.998C655.523,26.388 657.536,28.99 658.892,30.972C660.727,33.653 662.638,37.6 663.736,40.658M647.428,22.401M720.77,164.76C720.883,164.856 721.091,164.622 721.214,164.538C720.777,164.635 720.73,164.725 720.77,164.76Z" style="fill:rgb(73,138,12);"/>
        <path d="M665.673,48.892C665.092,46.422 664.593,43.047 663.736,40.658C662.638,37.6 660.727,33.653 658.892,30.972C657.536,28.99 655.523,26.388 653.565,24.998C651.935,23.841 649.422,22.553 647.428,22.401C647.073,22.408 646.247,22.424 646.247,22.424C646.367,101.073 646.647,284.56 646.647,284.586C651.619,284.526 663.219,284.386 663.221,284.386C663.134,281.69 662.923,278.097 662.934,275.4C662.954,270.052 663.08,262.9 663.729,257.592C664.236,253.441 665.278,247.936 666.428,243.915C667.603,239.813 669.181,234.213 671.479,230.618C673.342,227.703 676.564,224.182 679.471,222.306C681.186,221.199 683.852,220.387 685.829,219.881C686.946,219.595 688.477,219.328 689.63,219.31C690.87,219.291 693.735,219.805 693.735,219.805C696.153,222.758 699.19,226.859 701.794,229.65C703.132,231.083 704.925,233.023 706.519,234.165C708.612,235.666 711.597,237.819 714.159,238.081C715.652,238.233 717.789,237.78 719.03,236.935C720.514,235.924 721.659,233.616 722.372,231.968C723.027,230.457 723.614,226.621 723.614,226.621C726.794,228.569 730.815,231.581 734.214,233.115C736.924,234.337 740.706,235.839 743.669,236.075C745.511,236.222 748.222,236.303 749.781,235.311C751.162,234.432 752.255,232.29 752.741,230.727C753.217,229.2 753.053,226.99 752.909,225.397C752.818,224.394 752.236,222.108 752.236,222.107C755.959,222.803 760.879,224.027 764.645,224.425C767.769,224.755 771.98,224.981 775.111,224.724C777.408,224.535 780.638,224.407 782.661,223.304C784.695,222.195 787.336,219.925 787.969,217.697C788.499,215.831 787.478,213.15 786.773,211.343C785.863,209.013 782.288,204.317 782.287,204.316C784.014,203.822 786.391,203.375 788.043,202.671C789.952,201.858 792.387,200.465 794.006,199.168C795.607,197.885 797.548,195.885 798.675,194.171C799.824,192.423 801.486,189.872 801.461,187.781C801.444,186.393 800.397,184.696 799.658,183.521C798.454,181.607 796.369,179.333 794.579,177.95C792.676,176.48 789.693,175.164 787.475,174.235C785.948,173.595 782.232,172.512 782.232,172.511C782.361,171.865 782.584,171.011 782.663,170.357C782.865,168.666 783.139,166.353 782.807,164.683C782.504,163.16 781.741,161.117 780.724,159.943C779.525,158.56 777.236,157.382 775.508,156.776C774.325,156.361 772.626,156.165 771.372,156.175C768.459,156.198 764.57,156.986 761.831,157.977C759.628,158.774 754.982,161.725 754.981,161.725C754.287,160.379 753.58,158.447 752.669,157.237C751.644,155.877 750.024,154.163 748.521,153.362C747.206,152.661 745.179,152.296 743.693,152.206C741.846,152.094 739.353,152.45 737.573,152.953C735.737,153.472 733.436,154.636 731.793,155.606C729.64,156.875 726.997,158.943 725.117,160.59C723.864,161.687 722.589,163.598 721.214,164.538C721.091,164.622 720.883,164.856 720.77,164.76C720.777,164.635 720.73,164.725 720.77,164.76C720.529,162.785 719.654,160.47 718.819,158.86C718.085,157.447 716.855,155.668 715.713,154.558C714.684,153.557 713.178,152.114 711.766,151.852C710.479,151.613 708.722,152.327 707.512,152.828C706.106,153.409 704.349,154.513 703.225,155.54C700.462,158.066 697.805,162.43 695.963,165.689C693.968,169.221 692.121,174.342 690.626,178.114C689.041,182.112 687.803,187.821 685.726,191.587C684.165,194.419 681.462,197.854 679.199,200.164C677.628,201.769 675.075,203.401 673.378,204.873C670.427,207.432 666.602,210.978 663.875,213.776C660.879,216.851 654.374,224.476 654.373,224.477C654.772,216.961 654.534,206.857 655.703,199.422C656.251,195.94 657.357,191.339 658.553,188.023C660.015,183.971 662.587,178.787 664.822,175.105C667.631,170.476 671.857,164.529 675.651,160.666C678.95,157.307 684.307,153.901 687.999,150.978C690.326,149.136 693.824,147.083 695.729,144.808C697.14,143.124 699.178,140.607 699.298,138.413C699.363,137.23 698.568,135.713 697.96,134.696C696.923,132.962 695.06,130.864 693.35,129.788C690.793,128.18 683.685,126.963 683.684,126.963C685.469,124.287 687.901,120.752 689.632,118.041C693.027,112.724 698.914,106.162 700.544,100.069C701.308,97.214 702.267,92.729 700.705,90.22C699.994,89.078 698.092,88.429 696.831,87.96C694.943,87.258 692.225,86.888 690.212,86.83C688.068,86.768 683.109,87.637 683.108,87.637C684.949,81.922 687.903,74.44 689.243,68.588C689.975,65.389 690.62,61.043 690.858,57.771C691.051,55.114 691.94,51.326 690.858,48.892C690.12,47.233 688.128,45.496 686.499,44.694C685.135,44.022 683.015,43.898 681.494,43.887C679.583,43.873 677.039,44.344 675.198,44.855C672.207,45.686 665.674,48.891 665.673,48.892" style="fill:none;fill-rule:nonzero;stroke:rgb(73,138,12);stroke-width:1px;"/>
        <path d="M629.05,40.658C628.206,43.049 627.717,46.422 627.146,48.892C627.145,48.891 620.725,45.686 617.78,44.855C615.971,44.345 613.469,43.873 611.589,43.887C610.093,43.898 608.007,44.026 606.668,44.694C605.058,45.498 603.106,47.244 602.382,48.892C601.31,51.33 602.192,55.114 602.382,57.771C602.616,61.042 603.249,65.388 603.97,68.588C605.287,74.436 608.192,81.922 610.002,87.637C610.001,87.637 605.126,86.768 603.017,86.83C601.036,86.888 598.363,87.26 596.509,87.96C595.265,88.43 593.398,89.09 592.699,90.22C591.146,92.734 592.105,97.211 592.858,100.069C594.46,106.14 600.249,112.723 603.587,118.041C605.289,120.752 607.681,124.287 609.436,126.963C609.435,126.963 602.439,128.189 599.931,129.788C598.242,130.866 596.416,132.969 595.399,134.696C594.798,135.715 594.019,137.232 594.083,138.413C594.202,140.598 596.2,143.12 597.592,144.808C599.461,147.074 602.905,149.136 605.193,150.978C608.823,153.9 614.096,157.315 617.334,160.666C621.074,164.537 625.224,170.483 627.982,175.105C630.183,178.792 632.71,183.977 634.146,188.023C635.324,191.342 636.41,195.942 636.948,199.422C638.099,206.86 637.864,216.961 638.257,224.477C638.256,224.476 631.862,216.853 628.913,213.776C626.234,210.98 622.473,207.434 619.569,204.873C617.902,203.402 615.388,201.765 613.846,200.164C611.616,197.85 608.961,194.412 607.428,191.587C605.38,187.815 604.169,182.113 602.61,178.114C601.141,174.344 599.328,169.226 597.362,165.689C595.554,162.435 592.951,158.072 590.222,155.54C589.12,154.517 587.393,153.41 586.007,152.828C584.819,152.328 583.09,151.614 581.824,151.852C580.429,152.114 578.952,153.56 577.942,154.558C576.817,155.67 575.609,157.451 574.889,158.86C574.065,160.473 573.207,162.787 572.971,164.582C571.177,163.596 569.93,161.688 568.696,160.59C566.85,158.946 564.253,156.877 562.133,155.606C560.519,154.638 558.258,153.473 556.449,152.953C554.701,152.451 552.247,152.094 550.431,152.206C548.969,152.296 546.974,152.665 545.684,153.362C544.2,154.164 542.611,155.881 541.606,157.237C540.707,158.45 540.014,160.379 539.332,161.725C539.331,161.725 534.767,158.775 532.596,157.977C529.907,156.988 526.081,156.198 523.215,156.175C521.982,156.165 520.31,156.362 519.148,156.776C517.445,157.383 515.196,158.569 514.02,159.943C513.013,161.12 512.27,163.163 511.972,164.683C511.644,166.354 511.915,168.666 512.113,170.357C512.19,171.011 512.41,171.865 512.537,172.511C512.537,172.512 508.882,173.596 507.382,174.235C505.198,175.165 502.264,176.485 500.396,177.95C498.631,179.336 496.584,181.613 495.403,183.521C494.674,184.698 493.646,186.397 493.63,187.781C493.606,189.866 495.236,192.42 496.369,194.171C497.475,195.88 499.381,197.882 500.96,199.168C502.549,200.461 504.943,201.857 506.823,202.671C508.446,203.374 510.785,203.822 512.483,204.316C512.482,204.317 508.966,209.02 508.073,211.343C507.377,213.152 506.37,215.831 506.896,217.697C507.52,219.908 510.103,222.192 512.115,223.304C514.1,224.4 517.279,224.535 519.539,224.724C522.617,224.981 526.759,224.754 529.83,224.425C533.534,224.027 538.37,222.803 542.031,222.107C542.031,222.108 541.459,224.394 541.37,225.397C541.227,226.99 541.065,229.198 541.534,230.727C542.012,232.285 543.074,234.431 544.445,235.311C545.974,236.293 548.643,236.221 550.455,236.075C553.372,235.839 557.091,234.334 559.751,233.115C563.1,231.579 567.047,228.569 570.174,226.621C570.175,226.621 570.75,230.455 571.395,231.968C572.096,233.612 573.21,235.922 574.682,236.935C575.898,237.773 578.001,238.233 579.471,238.081C581.999,237.819 584.93,235.662 586.983,234.165C588.554,233.021 590.315,231.081 591.629,229.65C594.193,226.856 597.176,222.758 599.553,219.805C599.553,219.805 602.37,219.291 603.589,219.31C604.723,219.328 606.229,219.595 607.326,219.881C609.273,220.388 611.896,221.204 613.579,222.306C616.449,224.187 619.609,227.714 621.436,230.618C623.705,234.222 625.249,239.816 626.403,243.915C627.535,247.939 628.559,253.442 629.057,257.592C629.695,262.902 629.819,270.053 629.839,275.4C629.849,278.097 629.642,281.69 629.557,284.386C629.559,284.386 640.964,284.526 645.853,284.586C645.853,284.56 646.129,101.073 646.247,22.424C646.247,22.424 645.434,22.408 645.086,22.401C643.12,22.563 640.65,23.846 639.051,24.998C637.117,26.392 635.144,28.994 633.813,30.972C632.004,33.658 630.128,37.605 629.05,40.658M645.086,22.401M572.971,164.76C572.858,164.854 572.655,164.622 572.534,164.538C572.964,164.635 573.011,164.725 572.971,164.76Z" style="fill:rgb(117,170,0);"/>
        <path d="M627.146,48.892C627.717,46.422 628.206,43.049 629.05,40.658C630.128,37.605 632.004,33.658 633.813,30.972C635.144,28.994 637.117,26.392 639.051,24.998C640.65,23.846 643.12,22.563 645.086,22.401C645.434,22.408 646.247,22.424 646.247,22.424C646.129,101.073 645.853,284.56 645.853,284.586C640.964,284.526 629.559,284.386 629.557,284.386C629.642,281.69 629.849,278.097 629.839,275.4C629.819,270.053 629.695,262.902 629.057,257.592C628.559,253.442 627.535,247.939 626.403,243.915C625.249,239.816 623.705,234.222 621.436,230.618C619.609,227.714 616.449,224.187 613.579,222.306C611.896,221.204 609.273,220.388 607.326,219.881C606.229,219.595 604.723,219.328 603.589,219.31C602.37,219.291 599.553,219.805 599.553,219.805C597.176,222.758 594.193,226.856 591.629,229.65C590.315,231.081 588.554,233.021 586.983,234.165C584.93,235.662 581.999,237.819 579.471,238.081C578.001,238.233 575.898,237.773 574.682,236.935C573.21,235.922 572.096,233.612 571.395,231.968C570.75,230.455 570.175,226.621 570.174,226.621C567.047,228.569 563.1,231.579 559.751,233.115C557.091,234.334 553.372,235.839 550.455,236.075C548.643,236.221 545.974,236.293 544.445,235.311C543.074,234.431 542.012,232.285 541.534,230.727C541.065,229.198 541.227,226.99 541.37,225.397C541.459,224.394 542.031,222.108 542.031,222.107C538.37,222.803 533.534,224.027 529.83,224.425C526.759,224.754 522.617,224.981 519.539,224.724C517.279,224.535 514.1,224.4 512.115,223.304C510.103,222.192 507.52,219.908 506.896,217.697C506.37,215.831 507.377,213.152 508.073,211.343C508.966,209.02 512.482,204.317 512.483,204.316C510.785,203.822 508.446,203.374 506.823,202.671C504.943,201.857 502.549,200.461 500.96,199.168C499.381,197.882 497.475,195.88 496.369,194.171C495.236,192.42 493.606,189.866 493.63,187.781C493.646,186.397 494.674,184.698 495.403,183.521C496.584,181.613 498.631,179.336 500.396,177.95C502.264,176.485 505.198,175.165 507.382,174.235C508.882,173.596 512.537,172.512 512.537,172.511C512.41,171.865 512.19,171.011 512.113,170.357C511.915,168.666 511.644,166.354 511.972,164.683C512.27,163.163 513.013,161.12 514.02,159.943C515.196,158.569 517.445,157.383 519.148,156.776C520.31,156.362 521.982,156.165 523.215,156.175C526.081,156.198 529.907,156.988 532.596,157.977C534.767,158.775 539.331,161.725 539.332,161.725C540.014,160.379 540.707,158.45 541.606,157.237C542.611,155.881 544.2,154.164 545.684,153.362C546.974,152.665 548.969,152.296 550.431,152.206C552.247,152.094 554.701,152.451 556.449,152.953C558.258,153.473 560.519,154.638 562.133,155.606C564.253,156.877 566.85,158.946 568.696,160.59C569.93,161.688 571.177,163.596 572.534,164.538C572.655,164.622 572.858,164.854 572.971,164.76C572.964,164.635 573.011,164.725 572.971,164.76C573.207,162.787 574.065,160.473 574.889,158.86C575.609,157.451 576.817,155.67 577.942,154.558C578.952,153.56 580.429,152.114 581.824,151.852C583.09,151.614 584.819,152.328 586.007,152.828C587.393,153.41 589.12,154.517 590.222,155.54C592.951,158.072 595.554,162.435 597.362,165.689C599.328,169.226 601.141,174.344 602.61,178.114C604.169,182.113 605.38,187.815 607.428,191.587C608.961,194.412 611.616,197.85 613.846,200.164C615.388,201.765 617.902,203.402 619.569,204.873C622.473,207.434 626.234,210.98 628.913,213.776C631.862,216.853 638.256,224.476 638.257,224.477C637.864,216.961 638.099,206.86 636.948,199.422C636.41,195.942 635.324,191.342 634.146,188.023C632.71,183.977 630.183,178.792 627.982,175.105C625.224,170.483 621.074,164.537 617.334,160.666C614.096,157.315 608.823,153.9 605.193,150.978C602.905,149.136 599.461,147.074 597.592,144.808C596.2,143.12 594.202,140.598 594.083,138.413C594.019,137.232 594.798,135.715 595.399,134.696C596.416,132.969 598.242,130.866 599.931,129.788C602.439,128.189 609.435,126.963 609.436,126.963C607.681,124.287 605.289,120.752 603.587,118.041C600.249,112.723 594.46,106.14 592.858,100.069C592.105,97.211 591.146,92.734 592.699,90.22C593.398,89.09 595.265,88.43 596.509,87.96C598.363,87.26 601.036,86.888 603.017,86.83C605.126,86.768 610.001,87.637 610.002,87.637C608.192,81.922 605.287,74.436 603.97,68.588C603.249,65.388 602.616,61.042 602.382,57.771C602.192,55.114 601.31,51.33 602.382,48.892C603.106,47.244 605.058,45.498 606.668,44.694C608.007,44.026 610.093,43.898 611.589,43.887C613.469,43.873 615.971,44.345 617.78,44.855C620.725,45.686 627.145,48.891 627.146,48.892" style="fill:none;fill-rule:nonzero;stroke:rgb(117,170,0);stroke-width:1px;"/>
        <path d="M641.595,681.601C639.032,680.265 636.899,676.761 634.887,674.687C634.888,674.648 643.189,399.07 646.747,280.948C651.399,280.988 657.612,280.772 662.254,281.08C666.739,281.377 672.716,282.041 677.123,282.925C682.726,284.047 690.408,285.425 695.451,288.111C699.871,290.465 704.991,295.026 708.246,298.831C711.749,302.926 715.324,309.302 717.472,314.245C719.328,318.514 720.898,324.577 721.827,329.138C722.561,332.749 722.981,337.661 723.307,341.332C723.834,347.254 724.377,355.178 724.361,361.124C724.347,366.219 723.85,373.006 723.395,378.081C722.167,391.772 719.44,409.911 717.523,423.523C715.227,439.825 712.098,461.559 709.228,477.77C703.367,510.871 694.465,554.827 686.721,587.538C682.102,607.046 676.127,633.179 669.555,652.118C667.67,657.549 665.016,664.801 662.209,669.818C660.821,672.3 658.706,675.499 656.765,677.577C655.369,679.071 653.378,681.095 651.502,681.911C650.181,682.486 648.195,682.665 646.755,682.634C645.177,682.6 642.995,682.331 641.595,681.601M646.747,280.948L646.747,280.948Z" style="fill:rgb(232,98,1);"/>
        <path d="M634.887,674.687C636.899,676.761 639.032,680.265 641.595,681.601C642.995,682.331 645.177,682.6 646.755,682.634C648.195,682.665 650.181,682.486 651.502,681.911C653.378,681.095 655.369,679.071 656.765,677.577C658.706,675.499 660.821,672.3 662.209,669.818C665.016,664.801 667.67,657.549 669.555,652.118C676.127,633.179 682.102,607.046 686.721,587.538C694.465,554.827 703.367,510.871 709.228,477.77C712.098,461.559 715.227,439.825 717.523,423.523C719.44,409.911 722.167,391.772 723.395,378.081C723.85,373.006 724.347,366.219 724.361,361.124C724.377,355.178 723.834,347.254 723.307,341.332C722.981,337.661 722.561,332.749 721.827,329.138C720.898,324.577 719.328,318.514 717.472,314.245C715.324,309.302 711.749,302.926 708.246,298.831C704.991,295.026 699.871,290.465 695.451,288.111C690.408,285.425 682.726,284.047 677.123,282.925C672.716,282.041 666.739,281.377 662.254,281.08C657.612,280.772 651.399,280.988 646.747,280.948C643.189,399.07 634.888,674.648 634.887,674.687" style="fill:none;fill-rule:nonzero;stroke:rgb(232,98,1);stroke-width:1px;"/>
        <path d="M649.614,630.231C645.734,643.775 639.403,661.479 635.028,674.871C635.027,674.87 631.288,667.976 629.964,664.89C627.171,658.376 624.357,649.325 622.29,642.545C616.887,624.823 611.016,600.803 606.76,582.771C601.085,558.73 594.304,526.486 589.752,502.207C584.879,476.215 579.231,441.398 575.509,415.217C573.62,401.932 570.89,384.216 570.032,370.825C569.407,361.073 568.518,347.947 569.744,338.252C570.736,330.401 573.3,320.012 576.388,312.727C578.055,308.795 580.916,303.78 583.59,300.451C586.07,297.363 589.974,293.679 593.247,291.449C596.041,289.545 600.233,287.742 603.394,286.539C606.59,285.323 611.022,284.169 614.36,283.429C618.081,282.604 623.109,281.78 626.903,281.422C632.865,280.858 640.873,281.09 646.86,280.948C648.756,281.488 651.388,281.926 653.182,282.747C657.415,284.683 662.647,288.299 665.919,291.611C670.112,295.855 674.28,302.827 676.924,308.176C680.335,315.078 683.246,325.027 685.118,332.495C687.045,340.177 688.687,350.651 689.48,358.531C690.91,372.743 691.204,391.851 690.749,406.128C690.429,416.164 689.098,429.508 687.859,439.473C683.586,473.834 675.373,519.328 668.309,553.226C663.459,576.499 656.16,607.378 649.614,630.231M646.86,280.948L646.86,280.948Z" style="fill:rgb(255,121,0);"/>
        <path d="M635.028,674.871C639.403,661.479 645.734,643.775 649.614,630.231C656.16,607.378 663.459,576.499 668.309,553.226C675.373,519.328 683.586,473.834 687.859,439.473C689.098,429.508 690.429,416.164 690.749,406.128C691.204,391.851 690.91,372.743 689.48,358.531C688.687,350.651 687.045,340.177 685.118,332.495C683.246,325.027 680.335,315.078 676.924,308.176C674.28,302.827 670.112,295.855 665.919,291.611C662.647,288.299 657.415,284.683 653.182,282.747C651.388,281.926 648.756,281.488 646.86,280.948C640.873,281.09 632.865,280.858 626.903,281.422C623.109,281.78 618.081,282.604 614.36,283.429C611.022,284.169 606.59,285.323 603.394,286.539C600.233,287.742 596.041,289.545 593.247,291.449C589.974,293.679 586.07,297.363 583.59,300.451C580.916,303.78 578.055,308.795 576.388,312.727C573.3,320.012 570.736,330.401 569.744,338.252C568.518,347.947 569.407,361.073 570.032,370.825C570.89,384.216 573.62,401.932 575.509,415.217C579.231,441.398 584.879,476.215 589.752,502.207C594.304,526.486 601.085,558.73 606.76,582.771C611.016,600.803 616.887,624.823 622.29,642.545C624.357,649.325 627.171,658.376 629.964,664.89C631.288,667.976 635.027,674.87 635.028,674.871" style="fill:none;fill-rule:nonzero;stroke:rgb(255,121,0);stroke-width:1px;"/>
        <path d="M671.327,347.807C674.735,347.789 679.289,348.001 682.687,347.746C686.344,347.472 691.187,346.704 694.78,345.975C699.497,345.018 705.732,343.418 710.294,341.883C714.273,340.544 719.349,338.145 723.241,336.569C723.241,336.569 723.777,341.823 723.913,344.081C724.101,347.192 724.219,354.463 724.219,354.464C716.798,354.446 706.865,355.155 699.483,354.403C693.33,353.777 685.244,351.959 679.267,350.372C676.848,349.73 671.328,347.807 671.327,347.807Z" style="fill:rgb(212,79,2);"/>
        <path d="M724.219,354.464C724.219,354.463 724.101,347.192 723.913,344.081C723.777,341.823 723.241,336.569 723.241,336.569C719.349,338.145 714.273,340.544 710.294,341.883C705.732,343.418 699.497,345.018 694.78,345.975C691.187,346.704 686.344,347.472 682.687,347.746C679.289,348.001 674.735,347.789 671.327,347.807C671.328,347.807 676.848,349.73 679.267,350.372C685.244,351.959 693.33,353.777 699.483,354.403C706.865,355.155 716.798,354.446 724.219,354.464M671.327,347.807" style="fill:none;fill-rule:nonzero;stroke:rgb(212,79,2);stroke-width:1px;"/>
        <path d="M665.063,449.444C666.994,449.39 669.572,449.375 671.501,449.265C675.822,449.019 681.598,448.661 685.867,447.954C690.99,447.105 697.75,445.473 702.678,443.84C706.635,442.529 711.65,440.085 715.495,438.475C715.495,438.475 715.142,441.691 714.958,443.066C714.429,447.029 712.932,456.239 712.932,456.24C706.261,456.186 697.325,456.804 690.696,456.061C685.115,455.435 677.781,453.716 672.395,452.127C670.148,451.464 665.063,449.444 665.063,449.444Z" style="fill:rgb(212,79,2);"/>
        <path d="M712.932,456.24C712.932,456.239 714.429,447.029 714.958,443.066C715.142,441.691 715.495,438.475 715.495,438.475C711.65,440.085 706.635,442.529 702.678,443.84C697.75,445.473 690.99,447.105 685.867,447.954C681.598,448.661 675.822,449.019 671.501,449.265C669.572,449.375 666.994,449.39 665.063,449.444C665.063,449.444 670.148,451.464 672.395,452.127C677.781,453.716 685.115,455.435 690.696,456.061C697.325,456.804 706.261,456.186 712.932,456.24M665.063,449.444" style="fill:none;fill-rule:nonzero;stroke:rgb(212,79,2);stroke-width:1px;"/>
        <path d="M651.59,576.173C656,575.995 661.9,576.025 666.292,575.579C670.968,575.104 677.204,574.229 681.751,573.038C684.564,572.301 688.152,570.788 690.885,569.795C690.885,569.795 687.868,582.974 687.867,582.975C685.027,582.978 681.228,583.246 678.399,582.984C673.89,582.566 667.971,581.208 663.589,580.065C659.927,579.11 651.591,576.174 651.59,576.173Z" style="fill:rgb(212,79,2);"/>
        <path d="M687.867,582.975C687.868,582.974 690.885,569.795 690.885,569.795C688.152,570.788 684.564,572.301 681.751,573.038C677.204,574.229 670.968,575.104 666.292,575.579C661.9,576.025 656,575.995 651.59,576.173C651.591,576.174 659.927,579.11 663.589,580.065C667.971,581.208 673.89,582.566 678.399,582.984C681.228,583.246 685.027,582.978 687.867,582.975M651.59,576.173" style="fill:none;fill-rule:nonzero;stroke:rgb(212,79,2);stroke-width:1px;"/>
        <path d="M620.947,386.025C618.028,385.759 614.132,385.439 611.216,385.14C605.99,384.605 598.958,384.224 593.819,383.135C588.815,382.076 582.335,379.849 577.542,378.063C575.306,377.23 572.436,375.844 570.229,374.938C570.229,374.938 570.547,379.773 570.76,381.838C571.093,385.068 572.175,392.57 572.175,392.571C579.411,392.571 589.112,393.437 596.296,392.571C600.207,392.1 605.286,390.638 609.093,389.622C612.684,388.664 620.946,386.025 620.947,386.025Z" style="fill:rgb(212,79,2);"/>
        <path d="M572.175,392.571C572.175,392.57 571.093,385.068 570.76,381.838C570.547,379.773 570.229,374.938 570.229,374.938C572.436,375.844 575.306,377.23 577.542,378.063C582.335,379.849 588.815,382.076 593.819,383.135C598.958,384.224 605.99,384.605 611.216,385.14C614.132,385.439 618.028,385.759 620.947,386.025C620.946,386.025 612.684,388.664 609.093,389.622C605.286,390.638 600.207,392.1 596.296,392.571C589.112,393.437 579.411,392.571 572.175,392.571M620.947,386.025" style="fill:none;fill-rule:nonzero;stroke:rgb(212,79,2);stroke-width:1px;"/>
        <path d="M635.965,520.638C632.487,520.284 627.846,519.855 624.374,519.456C619.825,518.932 613.705,518.499 609.235,517.504C603.764,516.286 591.464,511.738 591.464,511.738C591.82,513.414 592.293,515.649 592.637,517.327C593.231,520.216 594.569,526.965 594.569,526.966C599.891,526.789 607.023,527.009 612.31,526.375C615.706,525.967 620.161,524.924 623.487,524.127C627.267,523.222 635.964,520.639 635.965,520.638Z" style="fill:rgb(212,79,2);"/>
        <path d="M594.569,526.966C594.569,526.965 593.231,520.216 592.637,517.327C592.293,515.649 591.82,513.414 591.464,511.738C591.464,511.738 603.764,516.286 609.235,517.504C613.705,518.499 619.825,518.932 624.374,519.456C627.846,519.855 632.487,520.284 635.965,520.638C635.964,520.639 627.267,523.222 623.487,524.127C620.161,524.924 615.706,525.967 612.31,526.375C607.023,527.009 599.891,526.789 594.569,526.966M635.965,520.638" style="fill:none;fill-rule:nonzero;stroke:rgb(212,79,2);stroke-width:1px;"/>
    </g>
</svg>
